PathFileType	4	(X/Y/Z)	P:\Projects\LMB_grand_challenge_database\project_only\opensim\experimental_data\SixthCompetition/DM_ngait_og6_new.trc
DataRate	CameraRate	NumFrames	NumMarkers	Units	OrigDataRate	OrigDataStartFrame	OrigNumFrames
120	120	5	68	mm	120	299	342
Frame#	Time	Sternum			Neck			R_Shoulder			L_Shoulder			Xiphoid			Thoracic			R_Asis			L_Asis			R_Psis			L_Psis			Lumbar			R_Elbow			R_ElbowMedial			R_ShoulderAnterior			R_ShoulderPosterior			R_Wrist			R_Radius			R_Ulna			L_Elbow			L_ElbowMedial			L_ShoulderAnterior			L_ShoulderPosterior			L_Wrist			L_Ulna			L_Radius			L_Thigh_Superior			L_Thigh_Inferior			L_Thigh_Lateral			L_Knee_Lateral			L_Knee_Medial			L_Patella			L_Shank_Superior			L_Shank_Inferior			L_Shank_Lateral			L_Ankle_Lateral			L_Ankle_Medial			R_Thigh_Superior			R_Thigh_Inferior			R_Thigh_Lateral			R_Knee_Lateral			R_Knee_Medial			R_Patella			R_Shank_Superior			R_Shank_Inferior			R_Shank_Lateral			R_Ankle_Lateral			RankleMedial			R_Heel			R_Toe			R_Midfoot_Medial			R_Midfoot_Lateral			R_Hindfoot			R_Midfoot_Superior			R_ToeMedial			R_ToeLateral			L_Heel			L_Toe			L_Midfoot_Medial			L_Midfoot_Lateral			L_Hindfoot			L_Midfoot_Superior			L_ToeMedial			L_ToeLateral			Oglobal			Sacral			Xglobal			Yglobal			Zglobal			
		X1	Y1	Z1	X2	Y2	Z2	X3	Y3	Z3	X4	Y4	Z4	X5	Y5	Z5	X6	Y6	Z6	X7	Y7	Z7	X8	Y8	Z8	X9	Y9	Z9	X10	Y10	Z10	X11	Y11	Z11	X12	Y12	Z12	X13	Y13	Z13	X14	Y14	Z14	X15	Y15	Z15	X16	Y16	Z16	X17	Y17	Z17	X18	Y18	Z18	X19	Y19	Z19	X20	Y20	Z20	X21	Y21	Z21	X22	Y22	Z22	X23	Y23	Z23	X24	Y24	Z24	X25	Y25	Z25	X26	Y26	Z26	X27	Y27	Z27	X28	Y28	Z28	X29	Y29	Z29	X30	Y30	Z30	X31	Y31	Z31	X32	Y32	Z32	X33	Y33	Z33	X34	Y34	Z34	X35	Y35	Z35	X36	Y36	Z36	X37	Y37	Z37	X38	Y38	Z38	X39	Y39	Z39	X40	Y40	Z40	X41	Y41	Z41	X42	Y42	Z42	X43	Y43	Z43	X44	Y44	Z44	X45	Y45	Z45	X46	Y46	Z46	X47	Y47	Z47	X48	Y48	Z48	X49	Y49	Z49	X50	Y50	Z50	X51	Y51	Z51	X52	Y52	Z52	X53	Y53	Z53	X54	Y54	Z54	X55	Y55	Z55	X56	Y56	Z56	X57	Y57	Z57	X58	Y58	Z58	X59	Y59	Z59	X60	Y60	Z60	X61	Y61	Z61	X62	Y62	Z62	X63	Y63	Z63	X64	Y64	Z64	X65	Y65	Z65	X66	Y66	Z66	X67	Y67	Z67	X68	Y68	Z68	

300	4.9	1350.92	1426.96	170.417	1506.17	1346.43	138.374	1473.61	1382.82	318.486	1375.2	1388.7	-12.9996	1528.87	1181.1	147.853	1263.67	1236.3	173.617	1454.11	951.794	311.673	1461.18	947.077	28.1104	1256.04	993.801	196.288	1255.88	989.8630000000001	115.974	1258.13	1041.57	157.523	1499.79	1067.12	407.896	-0	0	0	-0	0	0	-0	0	0	1624.38	822.548	352.299	1611.3	834.6950000000001	309.59	1581.73	817.992	373.986	1231.51	1080.35	-81.0741	-0	0	0	-0	0	0	-0	0	0	1196.93	812.987	-107.174	1158.81	843.109	-110.535	1215.97	827.023	-63.5334	1446.03	786.366	1.14535	1542.08	587.109	61.5036	1557.45	681.59	76.89149999999999	-0	0	0	-0	0	0	1603.13	525.524	128.711	1559.28	440.37	50.564	1595.02	170.76	49.5878	-0	0	0	-0	0	0	-0	0	0	1324.9	777.725	335.161	1269.12	567.982	290.375	1374.45	669.2089999999999	316.2	-0	0	0	-0	0	0	1318.57	449.508	231.615	1149.27	411.327	298.448	1039.01	234.154	284.279	1165.78	303.892	221.898	-0	0	0	-0	0	0	895.84	150.093	229.505	1161.91	37.0326	223.385	1085.16	32.9187	172.564	1070.5	23.9498	288.568	970.346	70.84220000000001	277.46	1067.36	131.45	236.692	1125.37	32.6664	179.299	1118.92	33.2653	271.66	1549.27	55.3971	109.096	1840.33	85.9594	92.1371	1807.28	61.9993	136.238	1804.04	61.2283	42.23	-0	0	0	1699.09	129.719	93.4615	1807.28	61.9993	136.238	1804.04	61.2283	42.23	-0	0	0	1255.96	991.832	156.131	-200	0	0	-0	0	200	-0	200	0	
301	4.908333	1360.49	1425.92	167.734	1516.12	1346.37	136.564	1482.91	1382.96	316.805	1385.7	1387.52	-15.168	1539.3	1180.86	146.368	1274.28	1235.9	172.309	1464.41	950.349	310.496	1472.04	947.096	27.6292	1266.49	993.073	195.09	1266.14	989.327	114.327	1268.72	1040.88	156.76	1508.94	1067.46	406.029	-0	0	0	-0	0	0	-0	0	0	1632.64	821.859	351.536	1620.07	834.807	308.853	1589.79	817.847	372.784	1243.47	1077.81	-82.9385	-0	0	0	-0	0	0	-0	0	0	1210.73	810.718	-109.726	1172.4	840.523	-112.484	1230.32	824.727	-66.7277	1457.39	787.249	2.10867	1556.67	589.569	60.5245	1566.1	682.201	82.2621	-0	0	0	-0	0	0	1613.92	525.509	128.781	1571.4	440.783	50.9947	1600.35	170.664	49.1757	-0	0	0	-0	0	0	-0	0	0	1336.22	776.091	334.024	1282.19	565.783	289.99	1386.47	667.929	315.905	-0	0	0	-0	0	0	1332.24	446.559	232.751	1160.71	412.075	298.22	1046.47	237.107	284.11	1175.27	303.372	222.379	-0	0	0	-0	0	0	902.812	158.629	229.07	1162.71	35.3808	223.302	1086.78	32.654	173.376	1071.43	25.0788	289.391	973.602	76.32729999999999	277.749	1072.84	132.358	236.831	1126.07	31.9943	179.215	1119.79	32.8863	271.329	1549.7	56.2367	109.179	1843.97	78.50709999999999	91.9436	1809.42	55.609	136.088	1806.26	54.6744	42.0269	-0	0	0	1703.12	126.71	93.06910000000001	1809.42	55.609	136.088	1806.26	54.6744	42.0269	-0	0	0	1266.31	991.2	154.708	-200	0	0	-0	0	200	-0	200	0	
302	4.916667	1370.07	1425.56	165.653	1526.06	1346.26	134.721	1492.87	1383.42	315.282	1396.28	1385.93	-17.1843	1549.59	1180.66	145.113	1284.6	1235.57	171.393	1474.42	949.005	309.166	1482.39	947.376	27.0691	1276.55	992.604	193.951	1276.09	989.038	113.087	1278.93	1040.44	156.081	1517.64	1067.59	404.463	-0	0	0	-0	0	0	-0	0	0	1640.6	821.372	350.757	1628.46	834.51	308.27	1597.4	817.619	371.789	1255.84	1075.66	-85.12130000000001	-0	0	0	-0	0	0	-0	0	0	1225.1	808.4160000000001	-112.836	1186.19	837.0119999999999	-114.078	1244.94	821.739	-69.7115	1468.83	789.211	1.50533	1570.31	593.606	61.1497	1574.3	685.374	86.605	-0	0	0	-0	0	0	1624.98	525.616	127.761	1581.78	441.543	50.5356	1604.87	170.621	48.6733	-0	0	0	-0	0	0	-0	0	0	1347.95	774.412	332.795	1296.04	563.348	289.882	1398.98	666.3869999999999	315.056	-0	0	0	-0	0	0	1347.01	443.642	233.84	1173.3	412.686	297.885	1054.05	241.263	284.254	1185.75	303.302	222.851	-0	0	0	-0	0	0	910.576	167.102	229.935	1163.72	33.6335	223.17	1088.6	33.1648	173.497	1073.66	26.5835	289.627	977.509	82.40300000000001	278.199	1078.93	133.639	236.713	1126.78	31.476	179.234	1120.87	32.2927	271.591	1551.35	56.8087	108.75	1845.79	72.29049999999999	93.00700000000001	1810.83	50.1868	137.024	1807.56	49.5297	42.7937	-0	0	0	1705.82	123.834	93.6307	1810.83	50.1868	137.024	1807.56	49.5297	42.7937	-0	0	0	1276.32	990.821	153.519	-200	0	0	-0	0	200	-0	200	0	
303	4.925	1379.7	1425.47	163.539	1535.83	1346.13	132.913	1502.79	1384.11	313.773	1406.84	1384.48	-19.2326	1559.74	1180.58	143.936	1295.45	1234.85	171.058	1484.17	947.777	307.514	1492.31	948.251	26.3317	1286.26	992.367	192.722	1285.7	988.981	112.06	1288.72	1040.24	155.442	1526.19	1068.06	403.281	-0	0	0	-0	0	0	-0	0	0	1648.18	820.792	350.303	1636.72	834.399	307.569	1604.89	817.417	370.819	1268.64	1073.22	-87.2389	-0	0	0	-0	0	0	-0	0	0	1239.79	806.092	-115.712	1200.7	834.33	-116.233	1260.17	819.021	-72.6955	1479.26	791.282	-0.378172	1583.24	597.923	60.9756	1583.01	690.481	88.73909999999999	-0	0	0	-0	0	0	1635.8	525.951	126.658	1590.74	442.327	49.8377	1609.51	170.793	48.41	-0	0	0	-0	0	0	-0	0	0	1359.61	772.739	331.569	1310.45	560.761	289.54	1412.27	665.312	314.386	-0	0	0	-0	0	0	1362.52	440.92	234.7	1186.76	413.426	297.515	1061.96	246.151	284.109	1197.04	303.447	223.223	-0	0	0	-0	0	0	918.718	177.486	230.603	1164.95	31.8116	222.736	1089.06	34.1977	173.447	1074.47	28.6281	289.673	981.938	89.40560000000001	278.618	1085.71	135.002	236.526	1127.58	31.0024	179.218	1122.37	31.5849	271.63	1551.7	57.033	108.618	1847.43	67.8343	94.0193	1811.9	45.8385	138.079	1808.82	46.0411	43.4834	-0	0	0	1708.01	122.134	94.2114	1811.9	45.8385	138.079	1808.82	46.0411	43.4834	-0	0	0	1285.98	990.674	152.391	-200	0	0	-0	0	200	-0	200	0	
304	4.933333	1389.32	1425.58	161.638	1545.62	1346.15	131.321	1513.12	1384.92	312.4	1417.78	1383.28	-20.979	1569.65	1180.51	143.087	1304.02	1235.75	170.048	1492.55	946.53	307.237	1502.48	950.399	25.9482	1295.59	992.883	191.568	1295.34	989.59	111.071	1298.05	1040.79	154.956	1534.44	1068.51	402.269	-0	0	0	-0	0	0	-0	0	0	1655.55	820.372	350.104	1644.69	834.174	307.342	1612.03	817.542	370.247	1281.75	1070.8	-89.5996	-0	0	0	-0	0	0	-0	0	0	1255.15	803.798	-118.69	1215.78	831.13	-118.355	1276.15	816.379	-76.2033	1488.31	792.164	-2.22618	1595.45	601.577	61.1755	1592.43	697.192	90.2223	-0	0	0	-0	0	0	1646.43	526.095	125.663	1600.26	442.733	49.4304	1613.41	171.125	48.3298	-0	0	0	-0	0	0	-0	0	0	1371.36	771.1559999999999	329.91	1325.25	558.391	288.936	1425.56	664.34	313.139	-0	0	0	-0	0	0	1378.09	438.414	235.176	1201.11	414.395	297.036	1074.19	248.531	283.49	1208.9	303.362	223.059	-0	0	0	-0	0	0	928.73	188.034	230.723	1165.77	30.3189	222.642	1090.95	35.6323	173.509	1076.47	31.2254	289.799	987.147	96.938	278.798	1093.01	136.738	236.25	1128.4	30.6659	179.31	1123.18	31.5685	271.315	1551.78	57.1334	108.573	1848.57	64.8569	94.101	1812.6	43.51	137.989	1809.45	43.8088	43.4676	-0	0	0	1709.39	121.081	94.2838	1812.6	43.51	137.989	1809.45	43.8088	43.4676	-0	0	0	1295.46	991.236	151.32	-200	0	0	-0	0	200	-0	200	0	
